<svg width="12" height="6" viewBox="0 0 12 6" fill="none" xmlns="http://www.w3.org/2000/svg">
<path d="M11.723 0.231381C11.5502 0.0801187 11.3187 -0.00301024 11.0788 8.33512e-05C10.839 0.00317694 10.6102 0.0922427 10.4422 0.2479L5.99791 4.28686L1.55382 0.2479L1.53565 0.231381C1.36228 0.0812568 1.13071 -0.000609543 0.891296 0.00357618C0.651876 0.00776191 0.423951 0.0976615 0.25706 0.253734C0.09017 0.409807 -0.00219581 0.619438 3.96517e-05 0.837063C0.00227511 1.05469 0.0989311 1.26271 0.268999 1.41593L4.82704 5.55879C5.13688 5.84039 5.55682 5.99903 5.995 6H6.00082C6.43851 5.99904 6.858 5.84072 7.16768 5.55961L11.7272 1.41576C11.7335 1.41015 11.7397 1.40453 11.7454 1.39924C11.9125 1.24156 12.0041 1.03005 11.9999 0.811112C11.9957 0.592175 11.8961 0.383688 11.723 0.231381Z" fill="white"/>
</svg>
