<svg width="12" height="17" viewBox="0 0 12 17" fill="none" xmlns="http://www.w3.org/2000/svg">
<path d="M10.1232 1.77702C9.13474 0.765672 7.82805 0.144056 6.43424 0.0220995C5.04044 -0.0998572 3.64932 0.285702 2.50691 1.11059C1.3645 1.93549 0.544385 3.14657 0.191609 4.52966C-0.161167 5.91275 -0.0238793 7.37875 0.579194 8.6684C0.637826 8.79265 0.811553 9.16539 4.6422 15.2647C4.78443 15.4928 4.98067 15.6807 5.21278 15.8108C5.44489 15.9409 5.70537 16.0091 5.97012 16.0091C6.23487 16.0091 6.49535 15.9409 6.72745 15.8108C6.95956 15.6807 7.15581 15.4928 7.29803 15.2647C11.0462 9.17427 11.2069 8.83037 11.2698 8.69946C11.8051 7.56663 11.9823 6.29175 11.7768 5.05145C11.5714 3.81115 10.9935 2.66683 10.1232 1.77702ZM10.3708 8.24906C10.1862 8.63956 7.54776 12.9239 6.46198 14.7144C6.41088 14.7978 6.33976 14.8665 6.25538 14.9138C6.171 14.9612 6.07617 14.9858 5.97989 14.9851C5.88254 14.9854 5.7867 14.9605 5.70128 14.9128C5.61586 14.8651 5.54362 14.7961 5.49129 14.7122C4.36424 12.9195 1.67584 8.62402 1.48908 8.22687C1.12904 7.45809 0.965818 6.60854 1.01471 5.75775C1.0636 4.90695 1.32299 4.08275 1.76861 3.3623C2.21423 2.64185 2.8315 2.04872 3.56262 1.63843C4.29375 1.22815 5.11482 1.01414 5.94896 1.01643C6.7831 1.01872 7.60303 1.23724 8.33198 1.65154C9.06093 2.06583 9.67507 2.66235 10.1169 3.38524C10.5587 4.10812 10.8138 4.93374 10.8582 5.78479C10.9026 6.63584 10.7349 7.48449 10.3708 8.25128V8.24906Z" fill="#D831B3"/>
<path d="M5.78443 2.63342C5.22013 2.63343 4.66852 2.80451 4.19945 3.12501C3.73037 3.44551 3.36492 3.90101 3.14937 4.43384C2.93383 4.96668 2.87787 5.55288 2.98859 6.11823C3.09932 6.68357 3.37174 7.20264 3.77136 7.6097C4.17099 8.01676 4.67985 8.29351 5.23352 8.40491C5.78718 8.51632 6.36075 8.45736 6.88159 8.23551C7.40244 8.01365 7.84715 7.63888 8.1594 7.15864C8.47166 6.6784 8.63742 6.11429 8.6357 5.53774C8.63226 4.76702 8.33048 4.02899 7.79626 3.48483C7.26203 2.94067 6.53878 2.63459 5.78443 2.63342ZM5.78443 7.44142C5.41807 7.44142 5.05993 7.33042 4.75532 7.12246C4.4507 6.9145 4.21328 6.61892 4.07308 6.27309C3.93288 5.92727 3.8962 5.54674 3.96767 5.17961C4.03914 4.81249 4.21556 4.47526 4.47462 4.21058C4.73368 3.9459 5.06373 3.76565 5.42305 3.69262C5.78237 3.6196 6.15482 3.65708 6.49329 3.80032C6.83176 3.94357 7.12106 4.18614 7.3246 4.49738C7.52814 4.80861 7.63678 5.17452 7.63678 5.54884C7.6362 6.0506 7.44086 6.53165 7.0936 6.88645C6.74634 7.24125 6.27552 7.44083 5.78443 7.44142Z" fill="#D831B3"/>
</svg>
