<svg width="303" height="61" viewBox="0 0 303 61" fill="none" xmlns="http://www.w3.org/2000/svg">
<path d="M83.6827 30.6727C83.6827 37.165 81.4938 39.5947 75.5486 39.5947C69.3365 39.5947 67.0687 37.1694 67.0687 30.6727V17.4516H71.0088V30.6727C71.0088 34.8667 72.112 36.2194 75.3866 36.2194C78.6613 36.2194 79.7032 34.8623 79.7032 30.6727V17.4516H83.6739V30.6727H83.6827Z" fill="#7B7F83"/>
<path d="M94.1502 20.6517C92.7624 20.6517 92.2896 21.1245 92.2896 22.4817V26.6756H100.866V29.7401H92.2896V39.1963H88.3188V21.6849C88.3188 18.9444 90.1488 17.399 92.9856 17.399C96.0764 17.399 99.478 17.399 102.254 17.6835L102.035 20.678H94.1502V20.6517Z" fill="#7B7F83"/>
<path d="M107.721 33.041L105.927 39.17H101.89L108.418 18.4583C108.502 18.1503 108.688 17.8799 108.946 17.6908C109.203 17.5017 109.517 17.405 109.836 17.4164H113.684C114.003 17.405 114.317 17.5017 114.574 17.6908C114.832 17.8799 115.018 18.1503 115.102 18.4583L121.63 39.17H117.593L115.799 33.041H107.721ZM112.673 22.2934C112.515 21.6936 112.296 21.0325 112.2 20.4328H111.351L110.847 22.2934L108.658 29.797H114.835L112.673 22.2934Z" fill="#7B7F83"/>
<path d="M127.903 29.3812C128.053 30.0864 128.126 30.8056 128.122 31.5264V39.1876H124.182V17.4516H128.122V23.852C128.13 24.6976 128.057 25.5421 127.903 26.3736H130.049L136.007 17.4516H140.293L134.426 26.2073C134.041 26.8323 133.551 27.3862 132.977 27.8446V27.9409C133.642 28.4646 134.217 29.093 134.68 29.8015L140.7 39.1964H136.291L130.049 29.3812H127.903Z" fill="#7B7F83"/>
<path d="M159.901 28.3085C159.901 36.946 157.568 39.5946 150.918 39.5946C144.268 39.5946 141.965 36.9679 141.965 28.3085C141.965 19.6491 144.298 17.0137 150.918 17.0137C157.537 17.0137 159.901 19.671 159.901 28.3085ZM146.124 28.3085C146.124 34.3631 147.258 36.2193 150.913 36.2193C154.569 36.2193 155.729 34.3587 155.729 28.3085C155.729 22.2583 154.595 20.3978 150.913 20.3978C147.232 20.3978 146.124 22.2671 146.124 28.3085Z" fill="#7B7F83"/>
<path d="M181.681 37.7341C181.702 37.9297 181.68 38.1276 181.615 38.3132C181.549 38.4987 181.443 38.6673 181.304 38.8064C181.165 38.9455 180.996 39.0516 180.811 39.1168C180.625 39.182 180.427 39.2047 180.232 39.1832H177.11C176.261 39.1832 175.797 38.8067 175.473 37.9837L169.344 24.6487C168.804 23.6104 168.364 22.5226 168.031 21.4004H167.698C167.838 22.4875 167.901 23.5833 167.886 24.6794V39.1788H164.008V18.8831C164.008 17.9375 164.542 17.434 165.487 17.434H168.552C169.401 17.434 169.813 17.8105 170.189 18.6336L176.117 31.5876C176.528 32.5333 177.159 33.8554 177.631 35.0243H178.008C177.912 33.8247 177.85 32.6602 177.85 31.4957V17.4516H181.698V37.7517L181.681 37.7341Z" fill="#7B7F83"/>
<path d="M201.316 38.7455C199.394 39.3453 197.629 39.5642 194.631 39.5642C188.103 39.5642 185.774 36.6003 185.774 28.3087C185.774 20.017 188.108 17.0532 194.631 17.0532C197.533 17.0532 198.982 17.2415 200.873 17.7449L200.497 20.7394C198.544 20.5818 197.249 20.5205 194.635 20.5205C191.041 20.5205 189.938 22.3504 189.938 28.3087C189.938 34.2669 191.041 36.0969 194.635 36.0969C196.751 36.1421 198.868 36.0368 200.97 35.7817L201.316 38.7455Z" fill="#7B7F83"/>
<path d="M218.809 38.995C215.942 39.2489 212.409 39.2489 209.226 39.2489C206.359 39.2489 204.595 37.6729 204.56 35.1206V21.5011C204.59 18.9488 206.39 17.3728 209.226 17.3728C212.409 17.3728 215.942 17.3728 218.809 17.6267L218.621 20.6518H210.111C208.977 20.6518 208.535 21.1246 208.535 22.4817V26.2949H217.457V29.3199H208.535V34.175C208.535 35.5321 208.972 36.0049 210.111 36.0049H218.621L218.809 38.995Z" fill="#7B7F83"/>
<path d="M234.727 39.1876L232.976 32.4413C232.538 31.0229 231.777 30.4888 230.455 30.4888L226.545 30.4581V39.1919H222.636V17.4515C225.265 17.2068 227.906 17.1118 230.547 17.167C235.905 17.167 238.111 18.5854 238.111 23.5367C238.111 26.7851 237.039 28.6457 234.044 29.0222V29.1798C235.117 29.4337 236.47 30.3137 236.947 32.3931L238.899 39.2007H234.705L234.727 39.1876ZM230.472 27.2404C233.248 27.2097 234.128 26.4524 234.128 23.7731C234.128 21.0939 233.252 20.4022 230.472 20.4022H226.563V27.2448H230.472V27.2404Z" fill="#7B7F83"/>
<path d="M251.118 20.8094V39.1964H247.147V20.8094H240.497V17.4516H257.834V20.8225H251.118V20.8094Z" fill="#7B7F83"/>
<path d="M261.078 34.8667C262.12 34.8667 262.465 35.2125 262.465 36.2238V37.8305C262.465 38.8374 262.12 39.1876 261.078 39.1876H259.944C258.902 39.1876 258.556 38.8418 258.556 37.8305V36.2238C258.556 35.2169 258.902 34.8667 259.944 34.8667H261.078Z" fill="#7B7F83"/>
<path d="M278.795 39.1876L277.044 32.4413C276.606 31.0229 275.844 30.4888 274.522 30.4888L270.613 30.4581V39.1919H266.703V17.4515C269.333 17.2068 271.974 17.1118 274.614 17.167C279.972 17.167 282.179 18.5854 282.179 23.5367C282.179 26.7851 281.106 28.6457 278.112 29.0222V29.1798C279.184 29.4337 280.537 30.3137 281.014 32.3931L282.967 39.2007H278.773L278.795 39.1876ZM274.518 27.2404C277.293 27.2097 278.173 26.4524 278.173 23.7731C278.173 21.0939 277.298 20.4022 274.518 20.4022H270.608V27.2448H274.518V27.2404Z" fill="#7B7F83"/>
<path d="M303 30.6727C303 37.165 300.811 39.5947 294.866 39.5947C288.658 39.5947 286.386 37.1694 286.386 30.6727V17.4516H290.326V30.6727C290.326 34.8667 291.429 36.2194 294.704 36.2194C297.979 36.2194 299.021 34.8623 299.021 30.6727V17.4516H302.991V30.6727H303Z" fill="#7B7F83"/>
<path d="M22.5941 17.942L18.2162 15.7049C17.8801 15.5308 17.4885 15.4973 17.1277 15.6118C16.7669 15.7263 16.4663 15.9795 16.2922 16.3157C16.118 16.6518 16.0845 17.0433 16.199 17.4042C16.3136 17.765 16.5667 18.0656 16.9029 18.2397L21.2807 20.4768C21.4472 20.563 21.629 20.6156 21.8157 20.6316C22.0025 20.6476 22.1906 20.6266 22.3692 20.5699C22.5479 20.5132 22.7137 20.4219 22.857 20.3011C23.0004 20.1804 23.1186 20.0325 23.2048 19.8661C23.291 19.6997 23.3436 19.5179 23.3596 19.3311C23.3756 19.1443 23.3546 18.9562 23.2979 18.7776C23.2412 18.5989 23.1499 18.4332 23.0291 18.2898C22.9083 18.1464 22.7605 18.0283 22.5941 17.942Z" fill="#7B7F83"/>
<path d="M30.5662 22.0046L26.1883 19.7675C25.8522 19.5933 25.4607 19.5598 25.0998 19.6744C24.739 19.7889 24.4384 20.0421 24.2643 20.3782C24.0901 20.7143 24.0566 21.1059 24.1711 21.4667C24.2857 21.8275 24.5388 22.1281 24.875 22.3023L29.2528 24.5393C29.589 24.7135 29.9805 24.747 30.3414 24.6325C30.52 24.5758 30.6858 24.4844 30.8291 24.3637C30.9725 24.2429 31.0907 24.0951 31.1769 23.9286C31.2631 23.7622 31.3157 23.5804 31.3317 23.3936C31.3477 23.2069 31.3267 23.0188 31.27 22.8401C31.2133 22.6615 31.122 22.4957 31.0012 22.3523C30.8804 22.209 30.7326 22.0908 30.5662 22.0046Z" fill="#7B7F83"/>
<path d="M37.8903 28.755C38.2107 28.7563 38.5222 28.6494 38.7743 28.4516C39.0264 28.2538 39.2043 27.9767 39.2793 27.6651C39.3542 27.3536 39.3219 27.0259 39.1874 26.735C39.0529 26.4442 38.8242 26.2073 38.5382 26.0626L34.1604 23.8256C33.9939 23.7393 33.8122 23.6867 33.6254 23.6707C33.4386 23.6547 33.2505 23.6757 33.0719 23.7324C32.8932 23.7891 32.7275 23.8805 32.5841 24.0012C32.4407 24.122 32.3226 24.2698 32.2363 24.4363C32.1501 24.6027 32.0975 24.7845 32.0815 24.9713C32.0655 25.158 32.0865 25.3461 32.1432 25.5248C32.1999 25.7034 32.2912 25.8692 32.412 26.0126C32.5328 26.1559 32.6806 26.2741 32.847 26.3603L37.2249 28.5974C37.4306 28.7033 37.659 28.7574 37.8903 28.755Z" fill="#7B7F83"/>
<path d="M57.1397 14.8555C56.9886 14.3591 56.7395 13.898 56.4072 13.4995C56.0748 13.101 55.6659 12.7731 55.2047 12.5353L49.89 9.65464C49.3055 9.35492 48.6542 9.20927 47.9976 9.23149C47.3411 9.2537 46.7011 9.44305 46.1382 9.7816C45.4699 10.1762 44.713 10.3959 43.9373 10.4203C43.1616 10.4447 42.3923 10.2731 41.7005 9.92131C41.0088 9.56954 40.4169 9.04898 39.9797 8.40779C39.5425 7.7666 39.2741 7.0255 39.1993 6.25305C39.1421 5.59851 38.9191 4.9693 38.5515 4.42473C38.1839 3.88017 37.6836 3.43817 37.0979 3.14039L31.792 0.434884C30.8821 -0.0372252 29.822 -0.129062 28.8445 0.179545C27.867 0.488151 27.0518 1.17199 26.5779 2.08096L24.8837 5.40812L22.2132 4.03785C21.7591 3.80502 21.2633 3.66463 20.7546 3.62481C20.2458 3.58498 19.7342 3.6465 19.2494 3.80582C18.0586 4.19107 17.2706 5.52632 16.9904 6.08231L0 39.7918H3.19145L19.5296 7.39567C19.6498 7.10382 19.864 6.86041 20.1381 6.70397C20.2082 6.68015 20.2769 6.65238 20.3439 6.62079L20.4621 6.56826C20.623 6.55482 20.7848 6.57878 20.9349 6.63829L26.2409 9.32192C26.3971 9.40374 26.5295 9.52451 26.6254 9.67253C26.7213 9.82055 26.7773 9.99082 26.7881 10.1668C26.9057 11.4183 27.3383 12.6196 28.0457 13.6587C28.7531 14.6978 29.7121 15.5407 30.8333 16.109C31.9545 16.6772 33.2014 16.9523 34.4576 16.9084C35.7138 16.8645 36.9385 16.5032 38.0173 15.8581C38.1674 15.7623 38.3394 15.7064 38.5172 15.6956C38.6949 15.6849 38.8724 15.7197 39.0329 15.7968L44.3389 18.4979C44.5776 18.6471 44.75 18.8821 44.8205 19.1546C44.9448 19.5078 44.9339 19.8946 44.7898 20.2403L35.0053 39.7786H38.1968L47.1057 21.5274C48.0601 19.6537 47.132 16.9481 45.1926 15.9631L39.5014 13.2664C38.4901 12.6491 37.3124 12.6973 36.1436 13.4065C35.5146 13.8048 34.791 14.0285 34.047 14.0546C33.3031 14.0808 32.5655 13.9084 31.9102 13.5553C31.2284 13.1988 30.6503 12.672 30.2323 12.0261C29.8142 11.3802 29.5703 10.6372 29.5242 9.86915C29.4839 9.21719 29.2762 8.58663 28.9211 8.03833C28.5661 7.49004 28.0757 7.04253 27.4973 6.73899L27.4272 6.70397L29.1259 3.36804C29.1841 3.2525 29.2655 3.15016 29.3649 3.06733C29.4643 2.98449 29.5796 2.92295 29.7037 2.88648C29.973 2.80975 30.2614 2.83953 30.5093 2.96966L35.8196 5.67954C35.9721 5.76102 36.1017 5.87948 36.1965 6.02403C36.2914 6.16859 36.3484 6.33464 36.3624 6.50696C36.4811 7.75916 36.9134 8.96125 37.6196 10.0021C38.3258 11.0429 39.283 11.889 40.4028 12.4619C41.5225 13.0349 42.7686 13.3163 44.0259 13.2801C45.2832 13.244 46.5111 12.8914 47.596 12.2551C47.7482 12.1712 47.9191 12.1271 48.0929 12.1271C48.2667 12.1271 48.4376 12.1712 48.5898 12.2551L53.9001 15.0438C54.0248 15.1107 54.1351 15.2016 54.2245 15.3113C54.3139 15.421 54.3807 15.5473 54.4211 15.6829C54.5179 15.9706 54.4991 16.2845 54.3686 16.5585L42.7322 39.7611H45.9237L56.9077 17.8719C57.3791 16.9362 57.4625 15.8523 57.1397 14.8555Z" fill="#7B7F83"/>
<path d="M72.6522 51.7428C73.1649 52.0293 73.5855 52.4557 73.8649 52.9723C74.1563 53.5374 74.3083 54.164 74.3083 54.7997C74.3083 55.4355 74.1563 56.0621 73.8649 56.6272C73.5711 57.156 73.1329 57.5903 72.6015 57.8793C72.0273 58.1846 71.3847 58.338 70.7346 58.3249C70.2105 58.3513 69.6877 58.252 69.2098 58.0351C68.732 57.8183 68.313 57.4902 67.9878 57.0784C67.2847 56.074 66.9409 54.8618 67.0121 53.6378C66.9337 52.4062 67.2391 51.1805 67.8863 50.1297C68.5595 49.259 69.5326 48.67 70.6161 48.4771L73.7803 47.7946L73.9438 48.6745L70.9602 49.3457C70.0965 49.4834 69.3029 49.9039 68.7041 50.5414C68.1718 51.2787 67.8964 52.1704 67.9201 53.0795C68.1948 52.5453 68.6128 52.0981 69.1271 51.7879C69.6632 51.472 70.276 51.31 70.8982 51.3197C71.5096 51.3064 72.114 51.4522 72.6522 51.7428ZM72.0882 57.1855C72.4684 56.9636 72.7805 56.6418 72.9906 56.2549C73.2173 55.8199 73.3317 55.3353 73.3234 54.8449C73.334 54.3639 73.2214 53.8882 72.9963 53.463C72.7859 53.074 72.469 52.7531 72.0826 52.538C71.6668 52.3197 71.2042 52.2056 70.7346 52.2056C70.2649 52.2056 69.8024 52.3197 69.3866 52.538C68.9994 52.754 68.6809 53.0745 68.4672 53.463C68.2387 53.8871 68.124 54.3632 68.1344 54.8449C68.1262 55.3353 68.2406 55.8199 68.4672 56.2549C68.677 56.6597 68.9979 56.9962 69.3922 57.225C69.8007 57.458 70.2644 57.5768 70.7346 57.5691C71.211 57.574 71.6794 57.4471 72.0882 57.2025V57.1855Z" fill="#7B7F83"/>
<path d="M81.0056 51.1448H81.9645V56.785L86.7135 51.1448H87.5652V58.2627H86.6064V52.6225L81.8686 58.2627H81V51.1448H81.0056Z" fill="#7B7F83"/>
<path d="M102.09 51.1447V58.2626H101.131V51.9964H97.7468L97.6509 53.7561C97.629 54.9018 97.4564 56.0396 97.1376 57.1402C97.0691 57.4747 96.8877 57.7755 96.6238 57.9922C96.3599 58.2088 96.0295 58.3282 95.6881 58.3303C95.4551 58.3238 95.2239 58.2878 95 58.2231L95.0677 57.3997C95.1785 57.4289 95.2918 57.4478 95.4061 57.4561C95.5807 57.4604 95.7528 57.4143 95.9019 57.3232C96.051 57.2322 96.1706 57.1001 96.2465 56.9428C96.452 56.5457 96.5803 56.1131 96.6244 55.6681C96.6883 55.1643 96.7428 54.4969 96.7879 53.6659L96.912 51.1221H102.124L102.09 51.1447Z" fill="#7B7F83"/>
<path d="M115.893 55.0027H109.937C109.951 55.3435 110.034 55.6779 110.18 55.9861C110.327 56.2942 110.534 56.5697 110.788 56.7963C111.329 57.2626 112.027 57.5065 112.74 57.4788C113.158 57.4833 113.572 57.4027 113.958 57.2419C114.326 57.0837 114.654 56.8447 114.917 56.5425L115.481 57.1629C115.163 57.5446 114.756 57.8428 114.297 58.0315C113.801 58.2346 113.27 58.3363 112.734 58.3305C112.058 58.3432 111.39 58.182 110.794 57.8623C110.243 57.5625 109.786 57.1153 109.474 56.5707C109.154 56.0014 108.99 55.3571 109.001 54.7038C108.989 54.0532 109.145 53.4106 109.452 52.8369C109.74 52.3012 110.172 51.856 110.698 51.5509C111.24 51.2398 111.856 51.0801 112.481 51.0884C113.102 51.0801 113.714 51.24 114.252 51.5509C114.772 51.856 115.197 52.2991 115.481 52.8313C115.786 53.4077 115.939 54.052 115.927 54.7038L115.893 55.0027ZM110.726 52.5718C110.261 53.0173 109.979 53.621 109.937 54.2639H115.013C114.971 53.621 114.689 53.0173 114.223 52.5718C113.744 52.141 113.122 51.9026 112.478 51.9026C111.833 51.9026 111.211 52.141 110.732 52.5718H110.726Z" fill="#7B7F83"/>
<path d="M129.351 51.9964H126.655V58.2627H125.696V51.9964H123V51.1448H129.351V51.9964Z" fill="#7B7F83"/>
<path d="M141.037 54.2582C141.277 54.4663 141.466 54.7275 141.589 55.0211C141.711 55.3148 141.763 55.6328 141.742 55.9502C141.762 56.2805 141.704 56.6109 141.572 56.9146C141.441 57.2183 141.24 57.4869 140.986 57.6987C140.355 58.143 139.59 58.3544 138.82 58.2965H136V51.1448H136.959V53.6377H138.989C139.723 53.6024 140.446 53.8216 141.037 54.2582ZM140.258 57.1459C140.431 56.9972 140.568 56.8102 140.656 56.5997C140.744 56.3892 140.782 56.161 140.766 55.9333C140.782 55.7135 140.745 55.493 140.658 55.2907C140.57 55.0883 140.435 54.9102 140.264 54.7714C139.818 54.4861 139.293 54.348 138.764 54.3766H136.964V57.5464H138.764C139.294 57.5933 139.823 57.4514 140.258 57.1459ZM142.932 51.1448H143.891V58.2627H142.932V51.1448Z" fill="#7B7F83"/>
<path d="M165.652 51.7425C166.165 52.0291 166.585 52.4555 166.865 52.9721C167.156 53.5372 167.308 54.1638 167.308 54.7995C167.308 55.4353 167.156 56.0619 166.865 56.627C166.571 57.1558 166.133 57.5901 165.601 57.8791C165.027 58.1844 164.385 58.3378 163.735 58.3247C163.21 58.3511 162.688 58.2518 162.21 58.0349C161.732 57.8181 161.313 57.49 160.988 57.0782C160.285 56.0738 159.941 54.8616 160.012 53.6376C159.934 52.406 160.239 51.1803 160.886 50.1295C161.56 49.2588 162.533 48.6698 163.616 48.4769L166.808 47.7437L166.972 48.6235L163.966 49.3116C163.102 49.4493 162.309 49.8699 161.71 50.5073C161.177 51.2447 160.902 52.1364 160.926 53.0454C161.2 52.5113 161.618 52.064 162.133 51.7538C162.669 51.4379 163.282 51.276 163.904 51.2857C164.516 51.2837 165.119 51.4412 165.652 51.7425ZM165.088 57.1853C165.48 56.9552 165.799 56.6188 166.008 56.2152C166.234 55.7803 166.349 55.2956 166.34 54.8052C166.351 54.3242 166.238 53.8485 166.013 53.4233C165.803 53.0343 165.486 52.7134 165.1 52.4983C164.684 52.28 164.221 52.1659 163.752 52.1659C163.282 52.1659 162.819 52.28 162.403 52.4983C162.016 52.7143 161.698 53.0349 161.484 53.4233C161.256 53.8474 161.141 54.3235 161.151 54.8052C161.143 55.2956 161.257 55.7803 161.484 56.2152C161.694 56.62 162.015 56.9565 162.409 57.1853C162.818 57.4183 163.281 57.5371 163.752 57.5294C164.213 57.5402 164.668 57.4272 165.071 57.2022L165.088 57.1853Z" fill="#7B7F83"/>
<path d="M180.893 55.0027H174.937C174.951 55.3435 175.034 55.6779 175.18 55.9861C175.327 56.2942 175.534 56.5697 175.788 56.7963C176.329 57.2626 177.027 57.5065 177.74 57.4788C178.158 57.4833 178.572 57.4027 178.958 57.2419C179.326 57.0837 179.654 56.8447 179.917 56.5425L180.481 57.1629C180.163 57.5446 179.756 57.8428 179.297 58.0315C178.801 58.2346 178.27 58.3363 177.734 58.3305C177.058 58.3432 176.39 58.182 175.794 57.8623C175.243 57.5625 174.786 57.1153 174.474 56.5707C174.154 56.0014 173.99 55.3571 174.001 54.7038C173.989 54.0532 174.145 53.4106 174.452 52.8369C174.74 52.3012 175.172 51.856 175.698 51.5509C176.24 51.2398 176.856 51.0801 177.481 51.0884C178.102 51.0801 178.714 51.24 179.252 51.5509C179.772 51.856 180.197 52.2991 180.481 52.8313C180.786 53.4077 180.939 54.052 180.927 54.7038L180.893 55.0027ZM175.726 52.5718C175.261 53.0173 174.979 53.621 174.937 54.2639H180.013C179.971 53.621 179.689 53.0173 179.223 52.5718C178.744 52.1394 178.121 51.9001 177.475 51.9001C176.829 51.9001 176.206 52.1394 175.726 52.5718Z" fill="#7B7F83"/>
<path d="M193.601 55.1663C193.735 55.3064 193.841 55.4717 193.912 55.6527C193.982 55.8337 194.017 56.0268 194.012 56.221C194.019 56.6379 193.865 57.0414 193.584 57.3491C193.269 57.6939 192.871 57.9522 192.428 58.0992C191.909 58.2809 191.363 58.3706 190.814 58.3643C190.3 58.3638 189.789 58.2878 189.297 58.1387C188.828 58.0037 188.388 57.7818 188 57.4844L188.327 56.7681C188.668 57.0188 189.05 57.2096 189.455 57.3321C189.88 57.4662 190.323 57.5347 190.769 57.5352C191.333 57.5586 191.892 57.43 192.388 57.1629C192.577 57.0703 192.736 56.9267 192.848 56.7483C192.96 56.5699 193.019 56.3638 193.02 56.1533C193.023 55.9731 192.976 55.7954 192.886 55.6393C192.796 55.4833 192.664 55.3549 192.507 55.2678C192.074 55.0348 191.587 54.9256 191.096 54.952H189.878V54.247H191.057C191.506 54.2679 191.951 54.1624 192.343 53.9424C192.49 53.8627 192.613 53.7446 192.699 53.6006C192.784 53.4565 192.829 53.292 192.828 53.1246C192.827 52.9382 192.773 52.7559 192.673 52.5984C192.574 52.4409 192.432 52.3145 192.264 52.2334C191.826 51.9986 191.333 51.8856 190.837 51.9063C190.051 51.9104 189.277 52.1038 188.581 52.4703L188.299 51.7427C189.111 51.3087 190.018 51.0802 190.939 51.0772C191.437 51.0704 191.934 51.1506 192.405 51.3141C192.8 51.4447 193.153 51.6761 193.432 51.9852C193.675 52.2624 193.808 52.6201 193.804 52.9892C193.805 53.3443 193.672 53.6867 193.432 53.948C193.158 54.2429 192.809 54.4574 192.422 54.5685C192.865 54.6475 193.275 54.8555 193.601 55.1663Z" fill="#7B7F83"/>
<path d="M213 51.1447H213.959V54.2976H218.42V51.1447H219.379V58.2627H218.42V55.1267H213.964V58.2683H213.006V51.1447H213Z" fill="#7B7F83"/>
<path d="M231.221 51.7878C231.483 52.0604 231.685 52.3851 231.813 52.7407C231.941 53.0964 231.993 53.475 231.966 53.8521V58.2627H231.046V57.1347C230.822 57.5127 230.49 57.8152 230.093 58.0033C229.626 58.2207 229.114 58.3269 228.598 58.3135C227.92 58.351 227.25 58.1516 226.703 57.7494C226.487 57.569 226.312 57.3439 226.191 57.0897C226.07 56.8355 226.005 56.5581 226 56.2764C225.996 55.9948 226.053 55.7155 226.166 55.4577C226.28 55.1999 226.448 54.9697 226.658 54.7827C227.269 54.3578 228.009 54.1584 228.751 54.2187H231.007V53.7844C231.024 53.5283 230.988 53.2713 230.899 53.0303C230.811 52.7893 230.673 52.5697 230.494 52.3856C230.073 52.0397 229.536 51.8681 228.993 51.9062C228.551 51.9058 228.112 51.9822 227.696 52.1318C227.303 52.2669 226.939 52.4756 226.624 52.7466L226.19 52.0303C226.573 51.7118 227.013 51.4705 227.487 51.3196C228.003 51.1522 228.542 51.0685 229.084 51.0715C229.862 51.0251 230.628 51.2818 231.221 51.7878ZM230.138 57.2023C230.535 56.9449 230.839 56.5675 231.007 56.1251V54.9632H228.751C227.532 54.9632 226.923 55.3881 226.923 56.2379C226.916 56.4277 226.955 56.6165 227.038 56.7876C227.121 56.9587 227.244 57.1069 227.397 57.2193C227.788 57.481 228.253 57.6078 228.723 57.5802C229.221 57.5965 229.714 57.4651 230.138 57.2023Z" fill="#7B7F83"/>
<path d="M246.417 57.4279V60.0562H245.509V58.2683H239V51.1447H239.959V57.4279H244.307V51.1447H245.266V57.4279H246.394H246.417Z" fill="#7B7F83"/>
<path d="M259.865 55.0028H253.931C253.943 55.3479 254.026 55.6868 254.173 55.9991C254.32 56.3113 254.53 56.5903 254.788 56.819C255.329 57.2853 256.027 57.5292 256.74 57.5014C257.158 57.506 257.572 57.4254 257.958 57.2645C258.326 57.1064 258.654 56.8673 258.917 56.5651L259.481 57.1856C259.163 57.5672 258.756 57.8654 258.297 58.0542C257.801 58.2573 257.27 58.3589 256.734 58.3531C256.058 58.3658 255.39 58.2046 254.794 57.885C254.243 57.5851 253.786 57.1379 253.474 56.5934C253.154 56.024 252.99 55.3797 253.001 54.7265C252.989 54.0759 253.145 53.4332 253.452 52.8596C253.74 52.3238 254.172 51.8787 254.698 51.5736C255.24 51.2625 255.856 51.1027 256.481 51.1111C257.102 51.1028 257.714 51.2626 258.252 51.5736C258.772 51.8787 259.197 52.3218 259.481 52.8539C259.786 53.4303 259.939 54.0746 259.927 54.7265L259.865 55.0028ZM254.698 52.5719C254.233 53.0174 253.951 53.6211 253.909 54.264H258.985C258.942 53.6211 258.661 53.0174 258.195 52.5719C257.717 52.1473 257.1 51.9128 256.461 51.9128C255.822 51.9128 255.204 52.1473 254.726 52.5719H254.698Z" fill="#7B7F83"/>
<path d="M267 51.1447H267.959V54.2976H272.437V51.1447H273.396V58.2627H272.437V55.1267H267.959V58.2683H267V51.1447Z" fill="#7B7F83"/>
<path d="M282.606 55.0985H280.981V58.2683H280V51.1447H280.959V54.2694H282.594L285.099 51.1447H286.142L283.322 54.5965L286.328 58.2627H285.2L282.606 55.0985Z" fill="#7B7F83"/>
<path d="M293 51.1447H293.959V56.7849L298.708 51.1447H299.56V58.2627H298.601V52.6225L293.863 58.2627H293V51.1447Z" fill="#7B7F83"/>
</svg>
